# xmcd
#
# Track frame offsets:
#	150
#	12765
#	25180
#	36470
#	48112
#	60632
#	72642
#	83910
#	97640
#	107617
#	120195
#	135092
#	145927
#	158145
#	169897
#	183020
#	194597
#	206015
#	218530
#	230620
#
# Disc length: 3235 seconds
#
# Revision: 0
# Processed by: cddbd v1.5.1PL0 Copyright (c) Steve Scherf et al.
# Submitted via: dBpowerAMP V4.0
#
DISCID=040ca114
DTITLE=Gladys Knight and The Pips - One More Lonely Night
DYEAR=1998
DGENRE=Soul
TTITLE0=Letter Full Of Tears
TTITLE1=You Broke Your Promisse
TTITLE2=I Want That Kind Of Love
TTITLE3=What Shal I Do
TTITLE4=Come See About Me
TTITLE5=Either Way I Lose
TTITLE6=How Do I Say Goodbye
TTITLE7=Queen Of Tears
TTITLE8=Operator
TTITLE9=I Really Didn't Mean It
TTITLE10=Guess Who
TTITLE11=One More Lonely Night
TTITLE12=I Can't Stand By
TTITLE13=It Hurts So Bad
TTITLE14=Before Now, After Then
TTITLE15=Lovers Always Forgive
TTITLE16=Goodnight My Love
TTITLE17=Love Me Again
TTITLE18=Jungle Love
TTITLE19=Darling
EXTD=Another Comercial Compilation
EXTT0=
EXTT1=
EXTT2=
EXTT3=
EXTT4=
EXTT5=
EXTT6=
EXTT7=
EXTT8=
EXTT9=
EXTT10=
EXTT11=
EXTT12=
EXTT13=
EXTT14=
EXTT15=
EXTT16=
EXTT17=
EXTT18=
EXTT19=
PLAYORDER=
